<?xml version="1.0" encoding="UTF-8"?>
<svg width="10px" height="10px" viewBox="0 0 10 10" version="1.1" xmlns="http://www.w3.org/2000/svg" xmlns:xlink="http://www.w3.org/1999/xlink">
    <!-- Generator: Sketch 60.1 (88133) - https://sketch.com -->
    <title>Group 5</title>
    <desc>Created with Sketch.</desc>
    <g id="Page-1" stroke="none" stroke-width="1" fill="none" fill-rule="evenodd">
        <g id="Mobile" transform="translate(-253.000000, -109.000000)" fill="#F9E8DC">
            <g id="Group-3" transform="translate(257.378680, 114.121320) rotate(45.000000) translate(-257.378680, -114.121320) translate(241.878680, 99.121320)">
                <g id="Group-2" transform="translate(0.786797, -0.000000)">
                    <g id="Group-5" transform="translate(9.000000, 9.000000)">
                        <rect id="Rectangle" x="5" y="-4.54747351e-13" width="2" height="12" rx="1"></rect>
                        <path d="M6,-4.54747351e-13 C6.55228475,-4.54848804e-13 7,0.44771525 7,1 L7,11 C7,11.5522847 6.55228475,12 6,12 C5.44771525,12 5,11.5522847 5,11 L5,1 C5,0.44771525 5.44771525,-4.54645898e-13 6,-4.54747351e-13 Z" id="Rectangle" transform="translate(6.000000, 6.000000) rotate(90.000000) translate(-6.000000, -6.000000) "></path>
                    </g>
                </g>
            </g>
        </g>
    </g>
</svg>