<?xml version="1.0" encoding="UTF-8"?>
<svg width="25px" height="24px" viewBox="0 0 25 24" version="1.1" xmlns="http://www.w3.org/2000/svg" xmlns:xlink="http://www.w3.org/1999/xlink">
    <!-- Generator: Sketch 60.1 (88133) - https://sketch.com -->
    <title>GlobalSearch-Linear-32px</title>
    <desc>Created with Sketch.</desc>
    <g id="Page-1" stroke="none" stroke-width="1" fill="none" fill-rule="evenodd" stroke-linecap="round" stroke-linejoin="round">
        <g id="Artboard" transform="translate(-85.000000, -35.000000)" stroke="#F9E8DC" stroke-width="1.5">
            <g id="GlobalSearch-Linear-32px" transform="translate(86.000000, 36.000000)">
                <path d="M23.2222222,11 C23.2222222,4.928 18.0204444,0 11.6111111,0 C5.20177778,0 0,4.928 0,11 C0,17.072 5.20177778,22 11.6111111,22" id="Path"></path>
                <path d="M6.61791972,1.22222222 L7.71377896,1.22222222 C5.5768885,7.1719671 5.5768885,13.6058107 7.71377896,19.5555556 L6.61791972,19.5555556 M14.2889344,1.22222222 C15.3519179,4.1962963 15.8888889,7.29259259 15.8888889,10.3888889" id="Shape"></path>
                <path d="M1.22222222,15.4082288 L1.22222222,14.3096002 C4.60327485,15.3752699 8.12327485,15.9135979 11.6432749,15.9135979 M1.22222222,7.71782899 C7.98614272,5.57553848 15.300407,5.57553848 22.0643275,7.71782899 M18.8222222,21.3408229 C20.8685826,21.3408229 22.5274854,19.7668301 22.5274854,17.8252116 C22.5274854,15.883593 20.8685826,14.3096002 18.8222222,14.3096002 C16.7758619,14.3096002 15.1169591,15.883593 15.1169591,17.8252116 C15.1169591,19.7668301 16.7758619,21.3408229 18.8222222,21.3408229 L18.8222222,21.3408229 Z M23.2222222,22 L22.0643275,20.9013715" id="Shape"></path>
            </g>
        </g>
    </g>
</svg>