<?xml version="1.0" encoding="UTF-8"?>
<svg width="124px" height="133px" viewBox="0 0 124 133" version="1.1" xmlns="http://www.w3.org/2000/svg" xmlns:xlink="http://www.w3.org/1999/xlink">
    <!-- Generator: Sketch 60.1 (88133) - https://sketch.com -->
    <title>Group 3</title>
    <desc>Created with Sketch.</desc>
    <g id="Page-1" stroke="none" stroke-width="1" fill="none" fill-rule="evenodd">
        <g id="Mobile" transform="translate(-20.000000, -354.000000)">
            <g id="Group-3" transform="translate(21.000000, 355.000000)">
                <rect id="Rectangle" stroke="#413B38" fill="#181818" x="0" y="0" width="122" height="131" rx="9"></rect>
                <polyline id="Path-2" stroke="#2A2624" points="0 79 9.33333333 67.173913 16 79 30.6666667 67.173913 34 73.0869565 36.6666667 70.1304348 40.6666667 73.0869565 44 67.173913 48 73.0869565 58 64.2173913 68 67.173913 87.3333333 59.7826087 92.6666667 64.2173913 96 59.7826087 98.6666667 62 122 45"></polyline>
                <circle id="Oval" fill="#2A2624" cx="24" cy="29" r="12"></circle>
                <rect id="Rectangle" fill="#2A2624" x="48" y="20" width="40" height="10" rx="3"></rect>
                <rect id="Rectangle" fill="#2A2624" x="48" y="35" width="29" height="8" rx="2"></rect>
                <rect id="Rectangle" fill="#2A2624" x="41" y="88" width="40" height="10" rx="3"></rect>
                <rect id="Rectangle" fill="#2A2624" x="45" y="103" width="32" height="8" rx="2"></rect>
            </g>
        </g>
    </g>
</svg>