<?xml version="1.0" encoding="UTF-8"?>
<svg width="18px" height="24px" viewBox="0 0 18 24" version="1.1" xmlns="http://www.w3.org/2000/svg" xmlns:xlink="http://www.w3.org/1999/xlink">
    <!-- Generator: Sketch 60.1 (88133) - https://sketch.com -->
    <title>Shape</title>
    <desc>Created with Sketch.</desc>
    <g id="Page-1" stroke="none" stroke-width="1" fill="none" fill-rule="evenodd" stroke-linecap="round" stroke-linejoin="round">
        <g id="Artboard" transform="translate(-171.000000, -37.000000)" stroke="#FCE4D8" stroke-width="1.5">
            <path d="M179.93862,47.8510248 C179.822133,47.8399197 179.682348,47.8399197 179.554211,47.8510248 C176.774575,47.7610546 174.572303,45.5828939 174.580176,42.9314672 C174.580176,40.2107186 176.886649,38.0008045 179.75224,38.0008045 C181.597952,37.9690647 183.321223,38.8784567 184.272912,40.3864212 C185.224601,41.8943857 185.260125,43.7718271 184.366102,45.3115313 C183.472079,46.8512356 181.784332,47.819285 179.93862,47.8510248 L179.93862,47.8510248 Z M174.114247,51.9488053 C171.295251,53.7478309 171.295251,56.6795762 174.114247,58.4674967 C177.317652,60.5108344 182.571237,60.5108344 185.774642,58.4674967 C188.593638,56.6684711 188.593638,53.7367258 185.774642,51.9488053 C182.582885,49.9165727 177.329301,49.9165727 174.114247,51.9488053 L174.114247,51.9488053 Z" id="Shape"></path>
        </g>
    </g>
</svg>