<?xml version="1.0" encoding="UTF-8"?>
<svg width="30px" height="22px" viewBox="0 0 30 22" version="1.1" xmlns="http://www.w3.org/2000/svg" xmlns:xlink="http://www.w3.org/1999/xlink">
    <!-- Generator: Sketch 60.1 (88133) - https://sketch.com -->
    <title>Group</title>
    <desc>Created with Sketch.</desc>
    <g id="Page-1" stroke="none" stroke-width="1" fill="none" fill-rule="evenodd" stroke-linecap="round">
        <g id="Artboard" transform="translate(-121.000000, -35.000000)" stroke="#F9E8DC" stroke-width="1.5">
            <g id="Group" transform="translate(122.000000, 35.000000)">
                <g id="HambergerMenu-Linear-32px">
                    <path d="M0,0.777777778 L24.4444444,0.777777778 M0,8.55555556 L9.77777778,8.55555556 M0,16.3333333 L8.55555556,16.3333333" id="Shape"></path>
                </g>
                <g id="Eye-Linear-32px" transform="translate(11.000000, 4.888889)" stroke-linejoin="round">
                    <path d="M9.09876543,15.9652778 C12.0382609,15.9652778 14.7779039,14.093173 16.6848288,10.8529918 C17.4342752,9.58392078 17.4342752,7.45080144 16.6848288,6.18173045 C14.7779039,2.94154918 12.0382609,1.06944444 9.09876543,1.06944444 C6.15926998,1.06944444 3.41962692,2.94154918 1.51270211,6.18173045 C0.763255676,7.45080144 0.763255676,9.58392078 1.51270211,10.8529918 C3.41962692,14.093173 6.15926998,15.9652778 9.09876543,15.9652778 Z" id="Path"></path>
                    <path d="M11.8148148,8.51736111 C11.8148148,10.1016837 10.600938,11.3819444 9.09876543,11.3819444 C7.59659287,11.3819444 6.38271605,10.1016837 6.38271605,8.51736111 C6.38271605,6.93303849 7.59659287,5.65277778 9.09876543,5.65277778 C10.600938,5.65277778 11.8148148,6.93303849 11.8148148,8.51736111 Z" id="Path"></path>
                </g>
            </g>
        </g>
    </g>
</svg>